<?xml version="1.0" standalone="no"?>
<!DOCTYPE svg PUBLIC "-//W3C//DTD SVG 20010904//EN"
 "http://www.w3.org/TR/2001/REC-SVG-20010904/DTD/svg10.dtd">
<svg version="1.0" xmlns="http://www.w3.org/2000/svg"
 width="511.000000pt" height="511.000000pt" viewBox="0 0 511.000000 511.000000"
 preserveAspectRatio="xMidYMid meet">
<metadata>
Created by potrace 1.14, written by Peter Selinger 2001-2017
</metadata>
<g transform="translate(0.000000,511.000000) scale(0.100000,-0.100000)"
fill="#000000" stroke="none">
<path d="M500 5014 c-211 -56 -386 -229 -456 -449 -18 -58 -19 -121 -19 -1985
0 -1059 3 -1941 7 -1960 33 -165 141 -320 290 -417 36 -23 73 -43 80 -43 8 0
18 -4 24 -9 5 -5 45 -19 89 -30 79 -20 98 -20 2041 -21 1912 0 1962 0 2037 19
243 63 418 233 483 471 17 61 18 177 18 1960 1 1042 -2 1915 -6 1940 -29 199
-169 386 -353 475 -49 24 -110 49 -135 54 -30 7 -721 10 -2045 10 -1723 0
-2008 -2 -2055 -15z"/>
</g>
</svg>
